<mxfile host="app.diagrams.net" modified="2021-12-21T16:42:55.359Z" agent="5.0 (Windows NT 10.0; Win64; x64) AppleWebKit/537.36 (KHTML, like Gecko) Chrome/70.0.3538.102 Safari/537.36" etag="iLjz-TjqlTjRbibg-rfD" version="15.9.1" type="github">
  <diagram id="aSAzZMgqlj-SvLjRw0_g" name="Page-1">
    <mxGraphModel dx="1138" dy="1659" grid="1" gridSize="10" guides="1" tooltips="1" connect="1" arrows="1" fold="1" page="1" pageScale="1" pageWidth="827" pageHeight="1169" math="0" shadow="0">
      <root>
        <mxCell id="0" />
        <mxCell id="1" parent="0" />
        <mxCell id="3WYWveE3BrEozi9Aq0Xk-5" style="edgeStyle=orthogonalEdgeStyle;rounded=0;orthogonalLoop=1;jettySize=auto;html=1;entryX=0.5;entryY=1;entryDx=0;entryDy=0;" edge="1" parent="1" source="3WYWveE3BrEozi9Aq0Xk-2" target="3WYWveE3BrEozi9Aq0Xk-3">
          <mxGeometry relative="1" as="geometry" />
        </mxCell>
        <mxCell id="3WYWveE3BrEozi9Aq0Xk-2" value="&lt;font style=&quot;font-size: 24px&quot;&gt;Label&lt;/font&gt;" style="ellipse;whiteSpace=wrap;html=1;aspect=fixed;" vertex="1" parent="1">
          <mxGeometry x="200" y="210" width="70" height="70" as="geometry" />
        </mxCell>
        <mxCell id="3WYWveE3BrEozi9Aq0Xk-3" value="Widget" style="ellipse;whiteSpace=wrap;html=1;aspect=fixed;" vertex="1" parent="1">
          <mxGeometry x="205" y="110" width="60" height="60" as="geometry" />
        </mxCell>
        <mxCell id="3WYWveE3BrEozi9Aq0Xk-16" style="edgeStyle=orthogonalEdgeStyle;rounded=0;orthogonalLoop=1;jettySize=auto;html=1;entryX=0.5;entryY=1;entryDx=0;entryDy=0;" edge="1" parent="1" source="3WYWveE3BrEozi9Aq0Xk-6" target="3WYWveE3BrEozi9Aq0Xk-15">
          <mxGeometry relative="1" as="geometry" />
        </mxCell>
        <mxCell id="3WYWveE3BrEozi9Aq0Xk-6" value="BaseWidget" style="ellipse;whiteSpace=wrap;html=1;aspect=fixed;" vertex="1" parent="1">
          <mxGeometry x="50" y="-10" width="70" height="70" as="geometry" />
        </mxCell>
        <mxCell id="3WYWveE3BrEozi9Aq0Xk-7" value="" style="endArrow=classic;html=1;rounded=0;entryX=1;entryY=1;entryDx=0;entryDy=0;exitX=0;exitY=0;exitDx=0;exitDy=0;" edge="1" parent="1" source="3WYWveE3BrEozi9Aq0Xk-3" target="3WYWveE3BrEozi9Aq0Xk-6">
          <mxGeometry width="50" height="50" relative="1" as="geometry">
            <mxPoint x="220" y="90" as="sourcePoint" />
            <mxPoint x="150" y="50" as="targetPoint" />
          </mxGeometry>
        </mxCell>
        <mxCell id="3WYWveE3BrEozi9Aq0Xk-8" value="Pack" style="ellipse;whiteSpace=wrap;html=1;aspect=fixed;" vertex="1" parent="1">
          <mxGeometry x="160" y="-10" width="70" height="70" as="geometry" />
        </mxCell>
        <mxCell id="3WYWveE3BrEozi9Aq0Xk-10" value="Place" style="ellipse;whiteSpace=wrap;html=1;aspect=fixed;" vertex="1" parent="1">
          <mxGeometry x="265" y="-10" width="70" height="70" as="geometry" />
        </mxCell>
        <mxCell id="3WYWveE3BrEozi9Aq0Xk-11" value="" style="endArrow=classic;html=1;rounded=0;" edge="1" parent="1" source="3WYWveE3BrEozi9Aq0Xk-3" target="3WYWveE3BrEozi9Aq0Xk-10">
          <mxGeometry width="50" height="50" relative="1" as="geometry">
            <mxPoint x="324.03679656440363" y="139.03679656440363" as="sourcePoint" />
            <mxPoint x="249.99873734152925" y="89.99873734152925" as="targetPoint" />
          </mxGeometry>
        </mxCell>
        <mxCell id="3WYWveE3BrEozi9Aq0Xk-12" value="Grid" style="ellipse;whiteSpace=wrap;html=1;aspect=fixed;" vertex="1" parent="1">
          <mxGeometry x="360" y="-10" width="70" height="70" as="geometry" />
        </mxCell>
        <mxCell id="3WYWveE3BrEozi9Aq0Xk-13" value="" style="endArrow=classic;html=1;rounded=0;entryX=0;entryY=1;entryDx=0;entryDy=0;" edge="1" parent="1" source="3WYWveE3BrEozi9Aq0Xk-3" target="3WYWveE3BrEozi9Aq0Xk-12">
          <mxGeometry width="50" height="50" relative="1" as="geometry">
            <mxPoint x="300.00166142850173" y="132.46169129093835" as="sourcePoint" />
            <mxPoint x="360.8511947280755" y="79.99669546211646" as="targetPoint" />
          </mxGeometry>
        </mxCell>
        <mxCell id="3WYWveE3BrEozi9Aq0Xk-14" value="" style="endArrow=classic;html=1;rounded=0;" edge="1" parent="1" source="3WYWveE3BrEozi9Aq0Xk-3" target="3WYWveE3BrEozi9Aq0Xk-8">
          <mxGeometry width="50" height="50" relative="1" as="geometry">
            <mxPoint x="267.6616614285017" y="110.34169129093834" as="sourcePoint" />
            <mxPoint x="328.51119472807545" y="57.87669546211646" as="targetPoint" />
          </mxGeometry>
        </mxCell>
        <mxCell id="3WYWveE3BrEozi9Aq0Xk-15" value="Misc" style="ellipse;whiteSpace=wrap;html=1;aspect=fixed;" vertex="1" parent="1">
          <mxGeometry x="55" y="-110" width="60" height="60" as="geometry" />
        </mxCell>
      </root>
    </mxGraphModel>
  </diagram>
</mxfile>
